<mxfile host="app.diagrams.net" modified="2023-07-20T05:45:45.243Z" agent="Mozilla/5.0 (Windows NT 10.0; Win64; x64) AppleWebKit/537.36 (KHTML, like Gecko) Chrome/114.0.0.0 Safari/537.36" etag="H4W2WZwh7nFXx_yw4IJh" version="21.6.3" type="device">
  <diagram name="Page-1" id="u1L8gCv1Bs4Ka5xq8D0V">
    <mxGraphModel dx="1290" dy="549" grid="0" gridSize="10" guides="1" tooltips="1" connect="1" arrows="1" fold="1" page="1" pageScale="1" pageWidth="1600" pageHeight="1200" math="0" shadow="0">
      <root>
        <mxCell id="0" />
        <mxCell id="1" parent="0" />
        <mxCell id="CE_St0gZ-5eoJagb_GO1-9" style="edgeStyle=orthogonalEdgeStyle;rounded=0;orthogonalLoop=1;jettySize=auto;html=1;entryX=0.5;entryY=0;entryDx=0;entryDy=0;" edge="1" parent="1" source="CE_St0gZ-5eoJagb_GO1-1" target="CE_St0gZ-5eoJagb_GO1-5">
          <mxGeometry relative="1" as="geometry" />
        </mxCell>
        <mxCell id="CE_St0gZ-5eoJagb_GO1-11" style="edgeStyle=orthogonalEdgeStyle;rounded=0;orthogonalLoop=1;jettySize=auto;html=1;exitX=1;exitY=0.5;exitDx=0;exitDy=0;entryX=0.028;entryY=0.707;entryDx=0;entryDy=0;entryPerimeter=0;" edge="1" parent="1" source="CE_St0gZ-5eoJagb_GO1-5" target="CE_St0gZ-5eoJagb_GO1-6">
          <mxGeometry relative="1" as="geometry" />
        </mxCell>
        <mxCell id="CE_St0gZ-5eoJagb_GO1-5" value="Antara muka pengguna" style="rounded=0;whiteSpace=wrap;html=1;fillColor=#87F3FF;" vertex="1" parent="1">
          <mxGeometry x="200" y="360" width="120" height="40" as="geometry" />
        </mxCell>
        <mxCell id="CE_St0gZ-5eoJagb_GO1-1" value="Pengguna" style="shape=umlActor;verticalLabelPosition=bottom;verticalAlign=top;html=1;outlineConnect=0;fillColor=#FFE599;" vertex="1" parent="1">
          <mxGeometry x="240" y="160" width="40" height="80" as="geometry" />
        </mxCell>
        <mxCell id="CE_St0gZ-5eoJagb_GO1-12" style="edgeStyle=orthogonalEdgeStyle;rounded=0;orthogonalLoop=1;jettySize=auto;html=1;exitX=1.004;exitY=0.712;exitDx=0;exitDy=0;entryX=0;entryY=0.5;entryDx=0;entryDy=0;exitPerimeter=0;" edge="1" parent="1" source="CE_St0gZ-5eoJagb_GO1-6" target="CE_St0gZ-5eoJagb_GO1-7">
          <mxGeometry relative="1" as="geometry" />
        </mxCell>
        <mxCell id="CE_St0gZ-5eoJagb_GO1-6" value="&lt;font style=&quot;font-size: 10px;&quot;&gt;Pangkalan Data&lt;/font&gt;" style="image;html=1;image=img/lib/clip_art/computers/Database_128x128.png" vertex="1" parent="1">
          <mxGeometry x="410" y="330" width="60" height="70" as="geometry" />
        </mxCell>
        <mxCell id="CE_St0gZ-5eoJagb_GO1-13" style="edgeStyle=orthogonalEdgeStyle;rounded=0;orthogonalLoop=1;jettySize=auto;html=1;exitX=0.5;exitY=0;exitDx=0;exitDy=0;entryX=0.5;entryY=1;entryDx=0;entryDy=0;" edge="1" parent="1" source="CE_St0gZ-5eoJagb_GO1-7" target="CE_St0gZ-5eoJagb_GO1-8">
          <mxGeometry relative="1" as="geometry" />
        </mxCell>
        <mxCell id="CE_St0gZ-5eoJagb_GO1-7" value="Enjin Pencadang" style="rounded=0;whiteSpace=wrap;html=1;fillColor=#F19C99;" vertex="1" parent="1">
          <mxGeometry x="560" y="360" width="120" height="40" as="geometry" />
        </mxCell>
        <mxCell id="CE_St0gZ-5eoJagb_GO1-14" style="edgeStyle=orthogonalEdgeStyle;rounded=0;orthogonalLoop=1;jettySize=auto;html=1;exitX=0;exitY=0.5;exitDx=0;exitDy=0;" edge="1" parent="1" source="CE_St0gZ-5eoJagb_GO1-8" target="CE_St0gZ-5eoJagb_GO1-1">
          <mxGeometry relative="1" as="geometry" />
        </mxCell>
        <mxCell id="CE_St0gZ-5eoJagb_GO1-8" value="Cadangan N-Teratas" style="rounded=0;whiteSpace=wrap;html=1;fillColor=#BAF168;" vertex="1" parent="1">
          <mxGeometry x="560" y="180" width="120" height="40" as="geometry" />
        </mxCell>
        <mxCell id="CE_St0gZ-5eoJagb_GO1-15" value="" style="endArrow=none;dashed=1;html=1;rounded=0;" edge="1" parent="1">
          <mxGeometry width="50" height="50" relative="1" as="geometry">
            <mxPoint x="170" y="440" as="sourcePoint" />
            <mxPoint x="170" y="440" as="targetPoint" />
            <Array as="points">
              <mxPoint x="170" y="300" />
              <mxPoint x="440" y="300" />
              <mxPoint x="710" y="300" />
              <mxPoint x="710" y="440" />
            </Array>
          </mxGeometry>
        </mxCell>
        <mxCell id="CE_St0gZ-5eoJagb_GO1-53" value="&lt;i&gt;&lt;b&gt;Sistem Pencadang&lt;/b&gt;&lt;/i&gt;" style="text;html=1;strokeColor=none;fillColor=none;align=center;verticalAlign=middle;whiteSpace=wrap;rounded=0;" vertex="1" parent="1">
          <mxGeometry x="175" y="412" width="114" height="30" as="geometry" />
        </mxCell>
      </root>
    </mxGraphModel>
  </diagram>
</mxfile>
